<?xml version="1.0" encoding="UTF-8" standalone="no"?>
<!-- Created with Inkscape (http://www.inkscape.org/) -->

<svg
   xmlns:dc="http://purl.org/dc/elements/1.1/"
   xmlns:cc="http://creativecommons.org/ns#"
   xmlns:rdf="http://www.w3.org/1999/02/22-rdf-syntax-ns#"
   xmlns:svg="http://www.w3.org/2000/svg"
   xmlns="http://www.w3.org/2000/svg"
   xmlns:sodipodi="http://sodipodi.sourceforge.net/DTD/sodipodi-0.dtd"
   xmlns:inkscape="http://www.inkscape.org/namespaces/inkscape"
   width="433.49335mm"
   height="505.74222mm"
   viewBox="0 0 1536 1792"
   id="svg6107"
   version="1.1"
   inkscape:version="0.91 r13725"
   sodipodi:docname="database_down.svg">
  <defs
     id="defs6109" />
  <sodipodi:namedview
     id="base"
     pagecolor="#ffffff"
     bordercolor="#666666"
     borderopacity="1.0"
     inkscape:pageopacity="0.0"
     inkscape:pageshadow="2"
     inkscape:zoom="0.12374369"
     inkscape:cx="-967.39001"
     inkscape:cy="-232.00813"
     inkscape:document-units="px"
     inkscape:current-layer="layer1"
     showgrid="false"
     fit-margin-top="0"
     fit-margin-left="0"
     fit-margin-right="0"
     fit-margin-bottom="0"
     inkscape:window-width="1366"
     inkscape:window-height="719"
     inkscape:window-x="0"
     inkscape:window-y="0"
     inkscape:window-maximized="1" />
  <metadata
     id="metadata6112">
    <rdf:RDF>
      <cc:Work
         rdf:about="">
        <dc:format>image/svg+xml</dc:format>
        <dc:type
           rdf:resource="http://purl.org/dc/dcmitype/StillImage" />
        <dc:title></dc:title>
      </cc:Work>
    </rdf:RDF>
  </metadata>
  <g
     inkscape:label="Layer 1"
     inkscape:groupmode="layer"
     id="layer1"
     transform="translate(-409.14286,560.78065)">
    <path
       id="path6117"
       d="m 1177.1429,207.21935 q 237,0 443,-43 206,-43 325,-127.000002 l 0,170.000002 q 0,69 -103,128 -103,59 -280,93.5 -177,34.5 -385,34.5 -208.00004,0 -385.00004,-34.5 -177,-34.5 -280,-93.5 -103,-59 -103,-128 l 0,-170.000002 q 119,84.000002 325,127.000002 206,43 443.00004,43 z m 0,768 q 237,0 443,-43 206,-43 325,-127 l 0,170 q 0,68.99995 -103,127.99995 -103,59 -280,93.5 -177,34.5 -385,34.5 -208.00004,0 -385.00004,-34.5 -177,-34.5 -280,-93.5 -103,-59 -103,-127.99995 l 0,-170 q 119,84 325,127 206,43 443.00004,43 z m 0,-384 q 237,0 443,-43 206,-43 325,-127 l 0,170 q 0,69 -103,128 -103,59 -280,93.5 -177,34.5 -385,34.5 -208.00004,0 -385.00004,-34.5 -177,-34.5 -280,-93.5 -103,-59 -103,-128 l 0,-170 q 119,84 325,127 206,43 443.00004,43 z m 0,-1152 q 208,0 385,34.5 177,34.5 280,93.5 103,59 103,128 l 0,128 q 0,69 -103,127.999998 -103,59 -280,93.5 -177,34.5 -385,34.5 -208.00004,0 -385.00004,-34.5 -177,-34.5 -280,-93.5 -103,-58.999998 -103,-127.999998 l 0,-128 q 0,-69 103,-128 103,-59 280,-93.5 177,-34.5 385.00004,-34.5 z"
       inkscape:connector-curvature="0" />
    <path
       id="path4465"
       d="m 785.19029,153.79429 0,651.59791 -297.7402,0 451.07629,390.9588 442.14362,-390.9588 -297.7398,0 0,-651.59791 -297.73991,0 z"
       inkscape:connector-curvature="0"
       style="opacity:1;fill:#00ff00;stroke:#ffffff;stroke-width:50.271;stroke-miterlimit:4;stroke-dasharray:none" />
  </g>
</svg>
